HIERARCHY
ROOT ui
{
	 OFFSET 0 0 0
	 CHANNELS 3 XPosition YPosition Z Position
	 EndSite
	 {
	 OFFSET 0 -1 0
	 }
}
ROOT li
{
	 OFFSET 0 0 0
	 CHANNELS 3 XPosition YPosition Z Position
	 EndSite
	 {
	 OFFSET 0 -1 0
	 }
}
ROOT ul
{
	 OFFSET 0 0 0
	 CHANNELS 3 XPosition YPosition Z Position
	 EndSite
	 {
	 OFFSET 0 -1 0
	 }
}
ROOT ll
{
	 OFFSET 0 0 0
	 CHANNELS 3 XPosition YPosition Z Position
	 EndSite
	 {
	 OFFSET 0 -1 0
	 }
}
ROOT tt
{
	 OFFSET 0 0 0
	 CHANNELS 3 XPosition YPosition Z Position
	 EndSite
	 {
	 OFFSET 0 -1 0
	 }
}
ROOT tb
{
	 OFFSET 0 0 0
	 CHANNELS 3 XPosition YPosition Z Position
	 EndSite
	 {
	 OFFSET 0 -1 0
	 }
}
ROOT td
{
	 OFFSET 0 0 0
	 CHANNELS 3 XPosition YPosition Z Position
	 EndSite
	 {
	 OFFSET 0 -1 0
	 }
}
ROOT v
{
	 OFFSET 0 0 0
	 CHANNELS 3 XPosition YPosition Z Position
	 EndSite
	 {
	 OFFSET 0 -1 0
	 }
}
ROOT bn
{
	 OFFSET 0 0 0
	 CHANNELS 3 XPosition YPosition Z Position
	 EndSite
	 {
	 OFFSET 0 -1 0
	 }
}
MOTION
Frames: 30
Frame Time: 0.002
-0.002328505992889404	-0.003068516969680786	0		0.5824019165039063	-2.82102001953125	0		-0.8522241821289063	0.34292327880859375	0		-0.2181787109375	-3.504296630859375	0		2.32300244140625	-1.9095076904296875	0		3.57788525390625	-0.78971044921875	0		4.69702783203125	-0.4152176208496094	0		5.880234375	0.43603076171875	0		-0.17626385498046876	5.93191650390625	0		
0.004649512767791748	0.00732296895980835	0		0.5625826416015625	-2.8020556640625	0		-0.8514800415039062	0.34243511962890627	0		-0.24726309204101563	-3.498147705078125	0		2.31966455078125	-1.914878662109375	0		3.58411279296875	-0.8152752685546875	0		4.7009052734375	-0.40971490478515626	0		5.8889755859375	0.4354412536621094	0		-0.17557550048828124	5.93143505859375	0		
-0.005655213832855225	0.0010273929834365846	0		0.562384033203125	-2.80455810546875	0		-0.8547470703125	0.3379843444824219	0		-0.2165467987060547	-3.505308837890625	0		2.303798828125	-1.901032470703125	0		3.59654736328125	-0.7870111694335937	0		4.6986025390625	-0.4161386413574219	0		5.889791015625	0.4349632263183594	0		-0.17480720520019533	5.93090478515625	0		
-0.010097569465637207	-0.014435660362243653	0		0.56123486328125	-2.8070830078125	0		-0.853877197265625	0.33740658569335935	0		-0.21564930725097656	-3.505882080078125	0		2.319576171875	-1.9069022216796876	0		3.567368896484375	-0.7899247436523438	0		4.702603515625	-0.41074102783203126	0		5.89066064453125	0.43443389892578127	0		-0.17397740173339843	5.93033203125	0		
-0.014662020683288575	0.010076658248901367	0		0.5847960815429688	-2.82516845703125	0		-0.84218408203125	0.32656399536132813	0		-0.23180158996582031	-3.5101328125	0		2.32024267578125	-1.91949462890625	0		3.5754482421875	-0.78266162109375	0		4.7134482421875	-0.4145321044921875	0		5.888376953125	0.4249245910644531	0		-0.17310360717773438	5.92972265625	0		
0.0019469480514526366	-0.005895050048828125	0		0.5659724731445313	-2.8143857421875	0		-0.8361742553710938	0.3298159484863281	0		-0.23851962280273437	-3.494607421875	0		2.334428955078125	-1.90839892578125	0		3.60412109375	-0.7958709106445313	0		4.69552978515625	-0.40775155639648436	0		5.8982802734375	0.423122802734375	0		-0.15699415588378907	5.93876611328125	0		
-0.0020116209983825684	-0.0014519360065460205	0		0.5961409301757813	-2.80465771484375	0		-0.8470270385742188	0.33940277099609373	0		-0.23859500122070312	-3.496247802734375	0		2.32443505859375	-1.905822265625	0		3.57397021484375	-0.752857421875	0		4.71943994140625	-0.40988238525390625	0		5.89440478515625	0.4315824584960937	0		-0.1570553436279297	5.93912548828125	0		
-0.011868927955627441	0.008100884437561035	0		0.5701019287109375	-2.803765380859375	0		-0.8501809692382812	0.3348101806640625	0		-0.22160041809082032	-3.494261962890625	0		2.37318896484375	-1.9155032958984375	0		3.55067529296875	-0.764021240234375	0		4.71358251953125	-0.40040676879882814	0		5.89597607421875	0.41389749145507815	0		-0.17036253356933595	5.92774560546875	0		
-0.010376230239868164	-0.012600170135498048	0		0.5938628540039063	-2.811932373046875	0		-0.8492672119140625	0.3341258544921875	0		-0.24085115051269532	-3.502523681640625	0		2.374102294921875	-1.9161881103515626	0		3.57271044921875	-0.7591493530273438	0		4.70868701171875	-0.39196771240234374	0		5.88727099609375	0.43141851806640624	0		-0.1713843536376953	5.9301025390625	0		
-0.010066617965698242	0.006731411933898926	0		0.5686044311523437	-2.81906982421875	0		-0.8483779296875	0.33344244384765626	0		-0.20703977966308593	-3.50690185546875	0		2.3770498046875	-1.9139205322265624	0		3.576701904296875	-0.7549055786132812	0		4.68655859375	-0.393177734375	0		5.897779296875	0.41251559448242187	0		-0.17048423767089843	5.92941796875	0		
0.016763311386108398	0.004506515979766846	0		0.5758277587890624	-2.80188037109375	0		-0.8434366455078125	0.33668267822265624	0		-0.2649099426269531	-3.49334033203125	0		2.35115771484375	-1.9020421142578126	0		3.5730830078125	-0.7304976806640625	0		4.67315380859375	-0.35856588745117185	0		5.894806640625	0.41989727783203123	0		-0.1686259307861328	5.9277197265625	0		
0.0023959109783172608	-0.004839291095733642	0		0.5766300659179687	-2.802547119140625	0		-0.8466992797851562	0.3321092224121094	0		-0.20331468200683595	-3.504284423828125	0		2.37706494140625	-1.898246826171875	0		3.57566552734375	-0.7422217407226562	0		4.67397021484375	-0.3592567138671875	0		5.88983984375	0.4293233947753906	0		-0.16875123596191408	5.928078125	0		
-0.007617318153381348	0.004748252868652344	0		0.57633984375	-2.805172119140625	0		-0.8459229125976563	0.33147406005859376	0		-0.2473058624267578	-3.491979736328125	0		2.371014892578125	-1.889761962890625	0		3.580874755859375	-0.721980712890625	0		4.66374365234375	-0.35970382690429686	0		5.89959375	0.42744573974609373	0		-0.1679306640625	5.9274375	0		
-0.006895853996276856	0.00413483476638794	0		0.577033447265625	-2.805791259765625	0		-0.8492815551757813	0.3269541015625	0		-0.22951751708984375	-3.487949951171875	0		2.371717529296875	-1.8903990478515624	0		3.55867822265625	-0.7181460571289062	0		4.66758740234375	-0.3544281311035156	0		5.89615185546875	0.41885977172851563	0		-0.16812916564941408	5.9278466796875	0		
-0.006233376979827881	0.0035560309886932375	0		0.5787044677734375	-2.8043984375	0		-0.8445318603515625	0.33030010986328123	0		-0.26512039184570313	-3.498764892578125	0		2.376483154296875	-1.8850916748046875	0		3.553523193359375	-0.7096427001953125	0		4.65726904296875	-0.35383078002929685	0		5.88082275390625	0.41854812622070314	0		-0.1673963317871094	5.92726953125	0		
-0.0015726089477539062	0.0059321107864379885	0		0.5843897705078125	-2.79905224609375	0		-0.8398455200195313	0.3336874694824219	0		-0.2093924560546875	-3.49146240234375	0		2.385306884765625	-1.873834716796875	0		3.5750439453125	-0.7136727294921875	0		4.6541376953125	-0.34135214233398437	0		5.89840185546875	0.4165701599121094	0		-0.1495728454589844	5.933373046875	0		
-0.005104525089263916	0.002522438049316406	0		0.5848770751953125	-2.799555908203125	0		-0.8433934936523437	0.3292909240722656	0		-0.2546944885253906	-3.480985107421875	0		2.373254638671875	-1.8530965576171874	0		3.555391357421875	-0.6747880249023438	0		4.6577890625	-0.33598333740234376	0		5.89893896484375	0.4159844360351562	0		-0.15088720703125	5.935921875	0		
-0.004644708156585693	0.0020750830173492433	0		0.60813623046875	-2.807497802734375	0		-0.84701171875	0.32494320678710936	0		-0.2244062042236328	-3.487060791015625	0		2.375745849609375	-1.850627197265625	0		3.549629638671875	-0.6851668701171875	0		4.66609326171875	-0.3436773681640625	0		5.89842724609375	0.4164576416015625	0		-0.16651310729980467	5.92681689453125	0		
-0.02925129318237305	0.0022060770988464357	0		0.5825413818359375	-2.804357666015625	0		-0.846617919921875	0.3245611572265625	0		-0.257033203125	-3.484757080078125	0		2.378162353515625	-1.84811181640625	0		3.544555908203125	-0.6595091552734375	0		4.65862451171875	-0.3369937438964844	0		5.89499267578125	0.42403369140625	0		-0.16601576232910156	5.92642236328125	0		
0.02203289794921875	-2.1869799494743348E-4	0		0.5838446044921874	-2.802737060546875	0		-0.8422109985351562	0.32814620971679687	0		-0.22383531188964845	-3.487796142578125	0		2.386694580078125	-1.8366771240234374	0		3.544859619140625	-0.6599256591796875	0		4.6479580078125	-0.3361997680664062	0		5.8959580078125	0.40655322265625	0		-0.1655814666748047	5.92607958984375	0		
3.7093400955200194E-4	0.003952729940414429	0		0.5622086181640625	-2.794578125	0		-0.8419557495117187	0.3278705749511719	0		-0.2525052642822266	-3.480471923828125	0		2.38834912109375	-1.81604638671875	0		3.53383837890625	-0.625046875	0		4.6235439453125	-0.320064453125	0		5.90038330078125	0.4140498046875	0		-0.1509789733886719	5.93649072265625	0		
0.02246335792541504	-7.523630261421204E-4	0		0.5794956665039063	-2.787192138671875	0		-0.8417664794921875	0.32764950561523437	0		-0.25344122314453127	-3.482684326171875	0		2.361752197265625	-1.8037679443359376	0		3.5487490234375	-0.6376787719726562	0		4.6289091796875	-0.3115127258300781	0		5.90057421875	0.4136817016601563	0		-0.15066741943359374	5.93625439453125	0		
-0.003393877029418945	6.139559745788574E-4	0		0.577507080078125	-2.78934716796875	0		-0.8416434936523437	0.3274833984375	0		-0.2224952392578125	-3.487520751953125	0		2.3899912109375	-1.7966019287109376	0		3.53759619140625	-0.6026961059570313	0		4.62529443359375	-0.29871908569335937	0		5.8958916015625	0.4224690856933594	0		-0.15041912841796876	5.93607275390625	0		
0.022625478744506836	-0.001068297028541565	0		0.6034208984375	-2.7930419921875	0		-0.8556502075195312	0.3246706237792969	0		-0.2564985656738281	-3.48592333984375	0		2.3316904296875	-1.7635391845703126	0		3.5205478515625	-0.6065437622070312	0		4.62533447265625	-0.2989534912109375	0		5.886970703125	0.42339703369140624	0		-0.15121714782714843	5.93696728515625	0		
-0.028369354248046874	9.413229823112488E-4	0		0.555553955078125	-2.782111328125	0		-0.9125938110351562	0.32882720947265626	0		-0.22263372802734374	-3.48771533203125	0		2.34193994140625	-1.748882568359375	0		3.50108544921875	-0.5792783813476563	0		4.6047939453125	-0.2756908264160156	0		5.90073681640625	0.4128941345214844	0		-0.15013250732421876	5.935875	0		
5.80892026424408E-4	0.0033047161102294923	0		0.5962479858398437	-2.789014404296875	0		-0.8376253662109375	0.3312303466796875	0		-0.2804856872558594	-3.47149755859375	0		2.3403056640625	-1.7249163818359374	0		3.546763427734375	-0.5893527221679687	0		4.61361474609375	-0.2790030517578125	0		5.90480859375	0.4206571044921875	0		-0.13394099426269532	5.94351708984375	0		
3.903079926967621E-4	0.0033415570259094237	0		0.57540673828125	-2.769547119140625	0		-0.8418932495117187	0.32737155151367187	0		-0.23176271057128905	-3.472499267578125	0		2.3564150390625	-1.70927490234375	0		3.49668017578125	-0.5363173217773437	0		4.605953125	-0.2539013214111328	0		5.90045703125	0.412653076171875	0		-0.1349812774658203	5.94457763671875	0		
-0.003949654102325439	5.197529792785644E-4	0		0.5730294189453125	-2.771424072265625	0		-0.8421632690429688	0.3274814147949219	0		-0.30671139526367186	-3.452805908203125	0		2.33851171875	-1.6898525390625	0		3.5022197265625	-0.5444248046875	0		4.613541015625	-0.26007525634765627	0		5.89538232421875	0.4217259521484375	0		-0.15032197570800782	5.9359951171875	0		
-0.029308753967285155	0.0012002320289611816	0		0.5726083374023437	-2.771289306640625	0		-0.8565823364257813	0.3249446105957031	0		-0.23356903076171875	-3.4732294921875	0		2.3327548828125	-1.6596322021484375	0		3.493294677734375	-0.5231620483398437	0		4.590197265625	-0.25853146362304685	0		5.89085595703125	0.41383990478515625	0		-0.15056626892089844	5.93614453125	0		
-0.0047665247917175295	8.654810190200805E-4	0		0.5741442260742188	-2.76914453125	0		-0.9139508666992188	0.3293785095214844	0		-0.2928191223144531	-3.45976708984375	0		2.2947919921875	-1.634671875	0		3.496938232421875	-0.5181179809570312	0		4.59386767578125	-0.2525091552734375	0		5.899388671875	0.4127314453125	0		-0.15090202331542968	5.9363466796875	0		
